<?xml version="1.0" encoding="UTF-8"?>
<svg width="600px" height="600px" viewBox="0 0 600 600" version="1.1" xmlns="http://www.w3.org/2000/svg" xmlns:xlink="http://www.w3.org/1999/xlink">
    <title>drivers/split_airco/assets/icon</title>
    <g id="/drivers/split_airco/assets/icon" stroke="none" stroke-width="1" fill="none" fill-rule="evenodd">
        <g id="icon" transform="translate(0, 180)" fill="#000000" fill-rule="nonzero">
            <path d="M57.1946223,0 L102.834361,0.144810845 L520.828109,1.60746527 C524.4457,1.62034473 528.059466,1.84405684 531.651024,2.27746426 L531.719874,2.28586895 L533.182415,2.46653187 C540.719,3.41481358 547.259127,4.53002417 552.873293,5.84835492 C558.78068,7.23554017 566.330729,9.48766434 575.772028,12.6493328 L578.085478,13.4296643 C589.143858,17.1839239 596.895899,27.1735743 597.789149,38.8479548 L597.975895,41.328084 C599.553866,62.5975221 600.216175,79.6075475 599.938341,92.5893669 L599.914847,93.5835204 C599.568928,106.999329 597.621604,126.126017 594.084671,151.362837 L593.412781,156.095792 C593.243539,157.287979 592.988654,158.466429 592.650107,159.621997 C588.101153,175.148982 584.254166,186.674129 580.930796,194.551263 L580.879229,194.672595 L580.508911,195.537609 L580.454176,195.664495 C577.82144,201.721736 573.778587,209.067149 569.513093,215.809052 C567.500828,218.989573 565.525397,221.891461 563.744597,224.256367 C562.630647,225.735697 561.559326,227.053878 560.458253,228.259663 C557.9622,230.993094 555.706186,232.988907 551.833529,234.901189 C546.654379,237.458606 541.12126,238.593468 535.260678,238.720859 C535.115415,238.724016 534.970127,238.725911 534.824832,238.726544 L67.5275446,240.761 C67.3598293,240.761 67.1921115,240.761 67.0244157,240.757906 C61.448275,240.670303 57.0706055,240.557332 53.8276833,240.414458 L53.7241315,240.409681 L52.4376733,240.347675 L52.3300068,240.342254 C49.5029468,240.193809 45.6800405,239.928343 40.7734977,239.541974 L38.3901114,239.351601 C37.7727697,239.301394 37.1572783,239.230571 36.4963758,239.132001 L35.3522075,238.959138 C31.99104,238.446748 29.403337,238.009475 27.4410607,237.61236 L27.3298034,237.589582 L26.8798271,237.496396 L26.7770139,237.474879 C25.5411164,237.213531 24.139232,236.888051 22.5423175,236.494331 L22.4537622,236.472327 L21.0395656,236.118193 L20.9743257,236.101763 C11.6352083,233.736481 4.44824384,226.828301 1.40469412,218.12133 C0.474881241,215.461326 0,212.663644 0,209.845813 L0,44.9613449 C0,40.6342654 0.414867364,35.4967817 1.24701321,30.9446025 C1.88780654,27.4391995 2.87168137,24.0363669 4.20594397,20.7479472 C8.02516711,11.3525483 16.5525876,4.69700948 26.6465861,3.26679133 L30.0758282,2.78828324 C43.5043791,0.937148399 51.9219869,0.0221769722 56.9332946,0 L57.1946223,0 Z M567.457825,156.374402 L90.6092502,157.53359 C86.636844,175.796862 79.9567452,195.172275 70.5822104,215.668045 L91.0580649,215.57948 C91.0717989,214.703777 91.2701781,213.816967 91.6730086,212.975211 C95.8605946,204.224809 98.766179,197.604487 100.368419,193.188008 C101.878407,189.025819 103.717483,182.721424 105.856115,174.344176 C106.788923,170.663535 110.097874,168.084113 113.888082,168.076381 L501.668332,166.908918 C506.261159,166.893281 510.007327,170.608987 510.007327,175.212511 C510.007327,176.369901 509.76756,177.51913 509.29835,178.576722 C505.28103,187.668735 502.248619,193.964294 500.116761,197.598143 C496.531107,203.710054 493.094862,208.780031 489.918632,212.870994 C489.657351,213.207522 489.401705,213.53235 489.151862,213.845577 L534.715658,213.647511 C537.16755,213.594214 539.172183,213.183057 540.729558,212.41404 C543.065619,211.260514 553.058423,195.779437 557.453524,185.667451 L557.823842,184.802437 C560.440245,178.600974 563.651573,169.124963 567.457825,156.374402 L567.457825,156.374402 Z M495.151416,179.467376 L117.187616,180.605348 L117.069136,181.057767 C115.269215,187.880429 113.671175,193.2427 112.259289,197.179013 L112.156312,197.464492 C110.575732,201.821268 107.977498,207.82278 104.346457,215.521404 L474.87516,213.908205 C474.777323,212.186146 475.386382,210.431451 476.702245,209.116095 C476.701352,209.116987 476.743834,209.0732 476.828004,208.983724 C476.997225,208.803832 477.204743,208.576242 477.44887,208.299941 C478.182272,207.469886 479.041762,206.432916 480.013827,205.180903 C482.85836,201.517164 485.990196,196.896323 489.301,191.252909 C489.908462,190.217461 490.632393,188.864981 491.46981,187.20014 L491.724437,186.691321 C492.713534,184.704964 493.852322,182.306126 495.136264,179.501911 L495.151416,179.467376 Z M28.6975313,28.6485276 L28.6145278,28.7041841 C28.0981449,29.0726356 27.6861146,29.5844026 27.4390566,30.1921724 C26.7599103,31.8660012 26.2528081,33.6201106 25.9174974,35.4543978 C25.3104829,38.7750167 25.079296,42.510771 25.079296,44.9613449 L25.079296,209.845813 C25.4096415,210.790864 26.1648365,211.545233 27.1316592,211.790096 L28.5458558,212.14423 C29.8914865,212.475996 31.0314196,212.740657 31.9656551,212.938215 L32.4156314,213.031401 C33.898541,213.331505 36.1372438,213.709803 39.1317397,214.166297 L40.2423992,214.334074 C40.3023597,214.343013 40.3626022,214.349945 40.4230258,214.354859 L42.7700796,214.542305 C47.4504383,214.910848 51.0754384,215.162558 53.6450756,215.297485 L54.9315338,215.359492 C55.6788452,215.392416 56.5022341,215.423866 57.4017004,215.453841 C57.4313225,214.639025 57.6210316,213.816376 57.9875109,213.030865 C67.1594721,193.37171 73.7429145,174.880176 77.7508425,157.564324 L77.6050214,157.56511 C76.1968045,157.568516 74.8284368,157.097767 73.7203802,156.228691 C71.7366336,154.672788 70.2010094,153.205761 69.0850159,151.729458 C67.9433179,150.219151 66.9804962,148.356039 66.1251047,146.112848 C65.7627214,145.162529 65.6369657,144.138318 65.7586837,143.128559 C68.384506,121.345106 69.7725792,104.218474 69.9284508,91.8019643 C69.9410061,90.8018431 69.9480791,89.7515734 69.9496679,88.6511915 L69.9498315,87.8165101 C69.9368843,75.180643 69.232605,56.2289522 67.8347904,31.0137292 C66.5829053,30.6734511 65.3571497,30.3885061 64.1570929,30.1574181 L63.6937472,30.0706376 C56.7389976,28.8049426 46.0110229,28.5042992 31.6609438,29.2260618 C30.6036166,29.2792418 29.5943146,29.0672918 28.6975313,28.6485276 L28.6975313,28.6485276 Z M80.6612672,35.956308 L80.6645682,36.0094572 C81.8702617,58.6464491 82.4791356,75.9199793 82.4894513,87.8713083 L82.4891541,88.7259898 C82.4873678,89.8532052 82.4800209,90.9309863 82.4671113,91.9593687 C82.3104033,104.442455 80.9819587,121.205705 78.486758,142.296971 L78.4056278,142.977279 L78.4741707,143.119413 C78.67417,143.526847 78.8608922,143.84928 79.0268915,144.083873 L79.0881558,144.167721 C79.2427653,144.372248 79.4740754,144.626124 79.7799588,144.922021 L79.8821713,145.019359 L80.2380528,145.019359 C80.4465307,143.746789 80.6401561,142.481727 80.8189344,141.223468 C83.8646952,119.787128 84.7401639,85.3775536 83.4090119,38.1514896 L83.3855289,37.3367645 L83.0863969,37.1799218 C82.2700457,36.7543956 81.4616579,36.3465402 80.6612672,35.956308 L80.6612672,35.956308 Z M96.1036368,42.0750099 L96.1040832,42.1306527 C96.1025747,42.3165753 96.0928978,42.5007268 96.0753818,42.6827446 C97.2295129,88.066469 96.2934626,121.453901 93.2338932,142.987431 C93.1393982,143.652496 93.0410598,144.319134 92.9388779,144.987347 L569.165244,143.830114 C569.381301,143.829588 569.594832,143.839997 569.805315,143.86082 C572.86548,121.502886 574.545011,104.528318 574.843884,92.9370815 L574.866009,91.9984108 C575.122806,79.9969584 574.489341,63.7266134 572.965614,43.1873759 C572.178797,43.5389471 571.30698,43.7328231 570.389858,43.7296242 L96.1036368,42.0750099 Z M88.8967205,26.0676361 L89.5042458,26.3865278 L89.4459408,26.3558057 L89.5063305,26.3865792 C91.0396147,27.1967927 92.3593399,28.2918872 93.3953606,29.5884579 C93.599076,29.5676916 93.8057927,29.5522115 94.0141308,29.5424493 C94.1982285,29.5338227 94.3824648,29.5298138 94.5689475,29.5303411 L550.545851,31.1208308 C549.329359,30.7967966 548.194096,30.5110233 547.140062,30.2635129 C542.468658,29.1665637 536.77248,28.1952618 530.051527,27.3496063 L528.646404,27.1761004 C526.022292,26.8594389 523.381955,26.6959872 520.738824,26.6865775 L102.746604,25.2239281 L87.1472283,25.1740843 C87.7278886,25.4643981 88.31105,25.7622527 88.8967205,26.0676361 L88.8967205,26.0676361 Z" id="Shape"></path>
        </g>
    </g>
</svg>